#!OML:ASF H:\Dans Jumps\Project 1\Capture day 1\Session 1\subject.ASF
:FULLY-SPECIFIED
:DEGREES
421
root 0.963056 17.0804 1.54697 2.21939 -3.84451 -0.792556
lowerback 3.11053 0.460101 -1.02054
upperback 3.66714 0.580917 1.01283
thorax 1.99954 0.251711 1.60368
lowerneck -11.5629 -0.161491 -1.59042
upperneck 33.0957 -0.163614 0.919418
head 12.9637 -0.160081 0.611395
rclavicle 1.13804e-014 1.11319e-014
rhumerus -18.6329 -22.8419 -80.2476
rradius 19.3341
rwrist 43.3712
rhand -21.8616 -24.1635
rfingers 7.12502
rthumb 4.54244 -54.0948
lclavicle 1.13804e-014 1.11319e-014
lhumerus -25.6931 20.8644 76.7767
lradius 10.7594
lwrist -8.9438
lhand -26.837 -5.02252
lfingers 7.12502
lthumb -0.262626 24.9571
rfemur -24.4149 -1.77619 19.1237
rtibia 40.3771
rfoot -16.5896 0.369316
rtoes 9.76077
lfemur -23.0581 7.70674 -19.5451
ltibia 37.9585
lfoot -13.5994 5.78112
ltoes -5.96563
422
root 0.967763 17.1044 1.57146 2.44881 -3.91563 -0.854087
lowerback 3.10763 0.422155 -0.980406
upperback 3.71728 0.530268 1.04075
thorax 2.05476 0.226156 1.61089
lowerneck -11.5891 -0.134073 -1.60736
upperneck 32.9346 -0.0961658 0.849634
head 12.9 -0.141294 0.595824
rclavicle 1.29459e-014 8.64713e-015
rhumerus -19.3904 -23.0678 -79.4929
rradius 19.1809
rwrist 43.5984
rhand -21.5089 -24.2082
rfingers 7.12502
rthumb 4.88299 -54.1319
lclavicle 1.29459e-014 8.64713e-015
lhumerus -26.1178 20.5246 76.8716
lradius 10.5878
lwrist -9.68957
lhand -26.2799 -4.79585
lfingers 7.12502
lthumb 0.275438 25.1837
rfemur -24.2672 -1.80563 19.1707
rtibia 39.813
rfoot -16.4835 0.52022
rtoes 9.91924
lfemur -22.9561 7.93072 -19.5328
ltibia 37.463
lfoot -13.5068 5.63303
ltoes -5.86666
423
root 0.971258 17.1246 1.59471 2.66012 -3.97197 -0.935281
lowerback 3.11524 0.389772 -0.925417
upperback 3.77947 0.487046 1.0716
thorax 2.11634 0.204534 1.61264
lowerneck -11.6339 -0.114791 -1.62716
upperneck 32.7821 -0.046209 0.799924
head 12.8445 -0.127793 0.586228
rclavicle -1.16538e-014 -5.66536e-015
rhumerus -20.1286 -23.3045 -78.7416
rradius 19.0167
rwrist 43.8487
rhand -21.1792 -24.2778
rfingers 7.12502
rthumb 5.20128 -54.1939
lclavicle -1.16538e-014 -5.66536e-015
lhumerus -26.4511 20.0451 77.0614
lradius 10.4594
lwrist -9.97984
lhand -25.7086 -4.5624
lfingers 7.12502
lthumb 0.827183 25.4157
rfemur -24.1296 -1.80207 19.2421
rtibia 39.2984
rfoot -16.3887 0.625632
rtoes 10.0804
lfemur -22.886 8.15871 -19.4943
ltibia 37.0485
lfoot -13.4379 5.47462
ltoes -5.78676
424
root 0.973535 17.1415 1.61671 2.85947 -4.01093 -1.02784
lowerback 3.13373 0.362489 -0.865322
upperback 3.84628 0.450531 1.10479
thorax 2.17639 0.186385 1.61376
lowerneck -11.696 -0.102806 -1.64438
upperneck 32.6464 -0.0102979 0.759662
head 12.8002 -0.118847 0.578043
rclavicle -8.29926e-015 2.60408e-014
rhumerus -20.8549 -23.5563 -77.9887
rradius 18.8422
rwrist 44.153
rhand -20.8837 -24.3527
rfingers 7.12502
rthumb 5.48665 -54.2616
lclavicle -8.29926e-015 2.60408e-014
lhumerus -26.7047 19.4713 77.3241
lradius 10.3626
lwrist -9.92674
lhand -25.1311 -4.32874
lfingers 7.12502
lthumb 1.38499 25.6465
rfemur -24.0134 -1.77049 19.3299
rtibia 38.8401
rfoot -16.3013 0.684971
rtoes 10.2249
lfemur -22.8475 8.38024 -19.4396
ltibia 36.703
lfoot -13.3881 5.31355
ltoes -5.72879
